<?xml version="1.0" encoding="UTF-8"?><svg id="Layer_2" xmlns="http://www.w3.org/2000/svg" viewBox="0 0 477 312.5"><defs><style>.cls-1{font-family:Arial-BoldItalicMT, Arial;font-size:72.5px;font-style:italic;letter-spacing:0em;}.cls-1,.cls-2,.cls-3,.cls-4,.cls-5{fill:#fff;}.cls-1,.cls-6,.cls-7,.cls-8{font-weight:700;}.cls-2{font-size:86.2px;}.cls-3{stroke-width:3px;}.cls-3,.cls-5{stroke:#fff;stroke-miterlimit:10;}.cls-9{letter-spacing:0em;}.cls-9,.cls-10,.cls-11,.cls-12{font-family:Montserrat-Light, Montserrat;font-weight:300;}.cls-11{letter-spacing:0em;}.cls-12{letter-spacing:0em;}.cls-6{font-family:Montserrat-ExtraBold, Montserrat;}.cls-7,.cls-8{font-family:Montserrat-Bold, Montserrat;}.cls-5{stroke-width:6px;}.cls-8{letter-spacing:0em;}</style></defs><g id="Layer_1-2"><text class="cls-1" transform="translate(226.5 123.1)"><tspan x="0" y="0">OPSEU</tspan><tspan x="0" y="55.1">SEFPO</tspan></text><polygon class="cls-4" points="120.3 1.9 118.9 0 0 176.5 5.8 176.5 125.3 9.2 120.3 1.9"/><polygon class="cls-4" points="133.2 20.6 28.2 176.5 34 176.5 139.2 29.3 133.2 20.6"/><polygon class="cls-4" points="147.8 41.8 57 176.5 62.9 176.5 153.4 49.8 147.8 41.8"/><path class="cls-5" d="M189.1,118.1c.1-10.7-5.2-31.9-29.4-44.3h0c-24.2,12.4-29.6,33.6-29.4,44.3-8.4,5.5-28.4,21.8-25.7,50,23.2,14.1,43.7,7.7,55.2,1.5,11.5,6.2,31.9,12.6,55.2-1.5,2.7-28.2-17.4-44.5-25.7-50Z"/><text class="cls-2" transform="translate(0 289.4)"><tspan class="cls-12" x="0" y="0">L</tspan><tspan class="cls-9" x="49.2" y="0">O</tspan><tspan class="cls-11" x="121.5" y="0">C</tspan><tspan class="cls-10" x="181.6" y="0">AL</tspan><tspan class="cls-6" x="292.8" y="0"> </tspan><tspan class="cls-8" x="317.9" y="0">2</tspan><tspan class="cls-7" x="368.6" y="0">79</tspan></text><line class="cls-3" x1="6.9" y1="201.2" x2="470.1" y2="201.2"/></g></svg>